<svg xmlns="http://www.w3.org/2000/svg" version="1.1" xmlns:xlink="http://www.w3.org/1999/xlink" xmlns:svgjs="http://svgjs.dev/svgjs" viewBox="0 0 325 100"><rect width="100%" height="100%" fill="rgb(255, 252, 228)"></rect><g fill="rgb(237, 197, 213)">
    <rect width="100%" height="40" fill="rgb(237, 197, 213)"></rect>

    <rect x="0" width="7.69%" height="79.73605555001555" rx="15"></rect>
      <rect x="50" width="7.69%" height="91.15687311640986" rx="15"></rect>
      <rect x="100" width="7.69%" height="63.81245929615446" rx="15"></rect>
      <rect x="150" width="7.69%" height="67.27464214690258" rx="15"></rect>
      <rect x="200" width="7.69%" height="76.3306556620467" rx="15"></rect>
      <rect x="250" width="7.69%" height="64.09699400270598" rx="15"></rect>
      <rect x="300" width="7.69%" height="86.34927345678614" rx="15"></rect>
  </g><g fill="rgb(255, 252, 228)">
    <rect x="25" y="19.08851662994593" width="7.69%" height="60" rx="15"></rect>
      <rect x="75" y="8.314708608239338" width="7.69%" height="60" rx="15"></rect>
      <rect x="125" y="16.774051681833317" width="7.69%" height="60" rx="15"></rect>
      <rect x="175" y="18.197829005836226" width="7.69%" height="60" rx="15"></rect>
      <rect x="225" y="19.508318650879215" width="7.69%" height="60" rx="15"></rect>
      <rect x="275" y="2.6396350279655603" width="7.69%" height="60" rx="15"></rect>
  </g></svg>